<?xml version="1.0" encoding="utf-8"?>
<!-- Generator: Adobe Illustrator 16.0.0, SVG Export Plug-In . SVG Version: 6.00 Build 0)  -->
<!DOCTYPE svg PUBLIC "-//W3C//DTD SVG 1.1//EN" "http://www.w3.org/Graphics/SVG/1.1/DTD/svg11.dtd">
<svg version="1.1" id="Layer_1" xmlns="http://www.w3.org/2000/svg" xmlns:xlink="http://www.w3.org/1999/xlink" x="0px" y="0px"
	 width="30px" height="30px" viewBox="0 0 30 30" enable-background="new 0 0 30 30" xml:space="preserve">
<g>
	<path fill-rule="evenodd" clip-rule="evenodd" fill="#ff595e" d="M15,0.927c4.88,0,8.836,3.972,8.836,8.871
		c0,3.515-2.037,6.553-4.99,7.989c-0.43-1.635-1.285-3.094-2.439-4.252c-1.7-1.707-4.05-2.763-6.644-2.763
		c-1.218,0-2.381,0.233-3.449,0.656c-0.098-0.529-0.149-1.073-0.149-1.63C6.164,4.898,10.12,0.927,15,0.927L15,0.927z"/>
	<path fill-rule="evenodd" clip-rule="evenodd" fill="#1982c4" d="M9.763,11.333c1.75,0,3.381,0.511,4.753,1.392
		c-0.806,0.622-1.507,1.371-2.074,2.216c-0.938,1.396-1.41,2.787-1.557,4.393c-0.028,0.303-0.042,0.592-0.042,0.869
		c0,2.605,1.052,4.963,2.752,6.67c0.288,0.289,0.596,0.561,0.919,0.811c-1.372,0.881-3.002,1.391-4.751,1.391
		c-4.88,0-8.836-3.971-8.836-8.871C0.927,15.304,4.883,11.333,9.763,11.333L9.763,11.333z"/>
	<path fill-rule="evenodd" clip-rule="evenodd" fill="#B3B3B3" d="M18.328,18.017c-2.115,0.863-4.54,0.863-6.655,0
		c0.509-2.018,1.707-3.758,3.327-4.958C16.621,14.259,17.818,15.999,18.328,18.017L18.328,18.017z"/>
	<path fill-rule="evenodd" clip-rule="evenodd" fill="#8ac926" d="M24.083,12.214c2.954,1.436,4.99,4.474,4.99,7.988
		c0,4.9-3.956,8.871-8.836,8.871s-8.835-3.971-8.835-8.871c0-0.555,0.051-1.102,0.148-1.629c1.068,0.424,2.231,0.656,3.449,0.656
		c2.595,0,4.943-1.057,6.644-2.764C22.798,15.308,23.653,13.848,24.083,12.214L24.083,12.214z"/>
</g>
</svg>
