<?xml version="1.0" encoding="utf-8"?>
<!-- Generator: Adobe Illustrator 16.0.0, SVG Export Plug-In . SVG Version: 6.00 Build 0)  -->
<!DOCTYPE svg PUBLIC "-//W3C//DTD SVG 1.1//EN" "http://www.w3.org/Graphics/SVG/1.1/DTD/svg11.dtd">
<svg version="1.1" id="Capa_1" xmlns="http://www.w3.org/2000/svg" xmlns:xlink="http://www.w3.org/1999/xlink" x="0px" y="0px"
	 width="200px" height="100px" viewBox="0 0 200 100" enable-background="new 0 0 200 100" xml:space="preserve">
<g>
	<g>
		<path fill="#828080" d="M144.547,5.454C141.029,1.937,136.354,0,131.38,0L68.62,0C58.353,0,50,8.354,50,18.62v62.76
			C50,91.646,58.353,100,68.62,100h62.76c10.267,0,18.62-8.354,18.62-18.62V18.62C150,13.646,148.063,8.971,144.547,5.454z
			 M82.396,42.479c1.144-1.144,2.999-1.144,4.143,0L97.07,53.011l0-31.253c0-1.618,1.312-2.93,2.93-2.93s2.93,1.312,2.93,2.93V53.01
			l10.531-10.531c1.144-1.144,2.998-1.144,4.143,0s1.145,2.999,0,4.143l-15.532,15.532c-0.55,0.551-1.294,0.859-2.071,0.859
			c-0.777,0-1.522-0.309-2.071-0.859L82.396,46.623C81.251,45.479,81.251,43.624,82.396,42.479z M128.242,81.172H71.758
			c-1.618,0-2.93-1.312-2.93-2.93s1.312-2.93,2.93-2.93h56.484c1.618,0,2.93,1.312,2.93,2.93S129.86,81.172,128.242,81.172z"/>
	</g>
</g>
</svg>
