<?xml version="1.0" encoding="utf-8"?>
<!-- Generator: Adobe Illustrator 16.0.0, SVG Export Plug-In . SVG Version: 6.00 Build 0)  -->
<!DOCTYPE svg PUBLIC "-//W3C//DTD SVG 1.1//EN" "http://www.w3.org/Graphics/SVG/1.1/DTD/svg11.dtd">
<svg version="1.1" id="Layer_1" xmlns="http://www.w3.org/2000/svg" xmlns:xlink="http://www.w3.org/1999/xlink" x="0px" y="0px"
	 width="200px" height="100px" viewBox="0 0 200 100" enable-background="new 0 0 200 100" xml:space="preserve">
<g>
	<path fill="#828080" d="M37.185,56.783V43.227h4.67c1.054,0,1.859,0.064,2.414,0.194c0.777,0.179,1.439,0.502,1.988,0.971
		c0.715,0.604,1.25,1.376,1.604,2.316s0.532,2.015,0.532,3.223c0,1.03-0.12,1.942-0.361,2.737c-0.24,0.796-0.549,1.454-0.925,1.975
		c-0.376,0.521-0.788,0.933-1.234,1.23c-0.447,0.299-0.986,0.525-1.618,0.68c-0.632,0.154-1.358,0.23-2.178,0.23H37.185z
		 M38.979,55.184h2.895c0.894,0,1.595-0.082,2.104-0.25c0.509-0.166,0.914-0.399,1.216-0.701c0.425-0.426,0.757-0.998,0.994-1.717
		c0.237-0.718,0.356-1.589,0.356-2.612c0-1.418-0.233-2.508-0.698-3.27c-0.465-0.761-1.031-1.271-1.697-1.53
		c-0.481-0.185-1.255-0.277-2.321-0.277H38.98L38.979,55.184L38.979,55.184z"/>
	<path fill="#828080" d="M50.89,56.783V43.227h6.011c1.208,0,2.127,0.121,2.756,0.365c0.629,0.243,1.131,0.674,1.507,1.29
		c0.376,0.616,0.564,1.298,0.564,2.044c0,0.961-0.311,1.772-0.934,2.432c-0.623,0.66-1.584,1.079-2.885,1.258
		c0.475,0.229,0.835,0.452,1.082,0.675c0.524,0.48,1.021,1.082,1.489,1.805l2.358,3.688h-2.256l-1.794-2.82
		c-0.524-0.813-0.956-1.437-1.295-1.868c-0.339-0.432-0.643-0.732-0.911-0.906c-0.268-0.172-0.541-0.293-0.818-0.359
		c-0.203-0.043-0.536-0.064-0.999-0.064h-2.081v6.021H50.89V56.783z M52.684,49.21h3.856c0.82,0,1.461-0.085,1.924-0.255
		c0.462-0.169,0.813-0.44,1.054-0.813c0.24-0.373,0.36-0.778,0.36-1.216c0-0.642-0.232-1.169-0.698-1.582
		c-0.465-0.413-1.201-0.619-2.206-0.619h-4.291L52.684,49.21L52.684,49.21z"/>
	<path fill="#828080" d="M63.051,56.783l5.207-13.557h1.933l5.549,13.557h-2.044l-1.581-4.105h-5.669l-1.489,4.105H63.051z
		 M66.963,51.216h4.596l-1.415-3.754c-0.432-1.141-0.752-2.078-0.962-2.812c-0.173,0.869-0.416,1.732-0.73,2.59L66.963,51.216z"/>
	<path fill="#828080" d="M83.516,51.466v-1.591l5.743-0.009v5.03c-0.882,0.703-1.791,1.231-2.728,1.586
		c-0.937,0.354-1.899,0.531-2.885,0.531c-1.332,0-2.542-0.283-3.63-0.854s-1.91-1.396-2.464-2.475
		c-0.554-1.08-0.833-2.285-0.833-3.617c0-1.319,0.276-2.551,0.828-3.694c0.552-1.143,1.346-1.993,2.381-2.548
		c1.036-0.555,2.229-0.832,3.579-0.832c0.98,0,1.866,0.159,2.659,0.477c0.792,0.317,1.413,0.76,1.863,1.327
		c0.45,0.566,0.792,1.307,1.027,2.219l-1.619,0.444c-0.203-0.69-0.456-1.233-0.758-1.628c-0.302-0.395-0.734-0.71-1.294-0.948
		c-0.561-0.236-1.184-0.354-1.868-0.354c-0.82,0-1.529,0.125-2.127,0.374c-0.598,0.25-1.081,0.578-1.447,0.985
		c-0.367,0.407-0.652,0.854-0.855,1.341c-0.345,0.839-0.518,1.748-0.518,2.729c0,1.208,0.208,2.22,0.625,3.033
		c0.416,0.813,1.021,1.418,1.817,1.813c0.796,0.395,1.64,0.592,2.534,0.592c0.777,0,1.535-0.149,2.275-0.448
		c0.74-0.3,1.301-0.618,1.683-0.958v-2.524h-3.988V51.466z"/>
	<path fill="#828080" d="M106.84,52.029l1.794,0.453c-0.376,1.475-1.053,2.598-2.03,3.371s-2.172,1.16-3.582,1.16
		c-1.463,0-2.65-0.298-3.565-0.892c-0.916-0.597-1.612-1.457-2.09-2.586c-0.479-1.128-0.717-2.339-0.717-3.634
		c0-1.412,0.27-2.644,0.81-3.694c0.539-1.052,1.307-1.85,2.302-2.396c0.996-0.546,2.093-0.818,3.288-0.818
		c1.355,0,2.497,0.346,3.422,1.036c0.926,0.69,1.568,1.661,1.934,2.912l-1.768,0.417c-0.313-0.986-0.771-1.705-1.367-2.155
		c-0.6-0.45-1.352-0.675-2.258-0.675c-1.041,0-1.912,0.25-2.612,0.749s-1.191,1.17-1.476,2.012
		c-0.283,0.841-0.425,1.709-0.425,2.603c0,1.153,0.168,2.159,0.504,3.021c0.336,0.859,0.858,1.502,1.567,1.928
		c0.709,0.426,1.477,0.639,2.303,0.639c1.005,0,1.855-0.291,2.553-0.869C106.121,54.031,106.593,53.171,106.84,52.029z"/>
	<path fill="#828080" d="M110.298,50.181c0-2.25,0.604-4.012,1.813-5.285c1.207-1.273,2.768-1.91,4.679-1.91
		c1.252,0,2.38,0.3,3.385,0.897c1.005,0.597,1.771,1.432,2.298,2.502c0.527,1.069,0.791,2.282,0.791,3.639
		c0,1.375-0.277,2.604-0.832,3.689c-0.555,1.086-1.341,1.907-2.357,2.465c-1.018,0.559-2.114,0.838-3.292,0.838
		c-1.276,0-2.417-0.309-3.423-0.926c-1.004-0.615-1.767-1.457-2.283-2.523C110.557,52.499,110.298,51.37,110.298,50.181z
		 M112.146,50.208c0,1.634,0.438,2.921,1.317,3.86c0.878,0.94,1.979,1.412,3.306,1.412c1.352,0,2.463-0.477,3.334-1.426
		c0.873-0.949,1.31-2.297,1.31-4.042c0-1.104-0.187-2.066-0.56-2.89c-0.373-0.824-0.92-1.461-1.638-1.914s-1.524-0.68-2.418-0.68
		c-1.271,0-2.362,0.437-3.278,1.309C112.604,46.711,112.146,48.168,112.146,50.208z"/>
	<path fill="#828080" d="M125.501,56.783V43.227h1.795v11.957h6.677v1.601L125.501,56.783L125.501,56.783z"/>
	<path fill="#828080" d="M135.563,50.181c0-2.25,0.604-4.012,1.813-5.285c1.208-1.273,2.769-1.91,4.679-1.91
		c1.252,0,2.381,0.3,3.385,0.897c1.006,0.597,1.771,1.432,2.299,2.502c0.527,1.069,0.791,2.282,0.791,3.639
		c0,1.375-0.277,2.604-0.832,3.689c-0.555,1.086-1.342,1.907-2.358,2.465c-1.019,0.559-2.114,0.838-3.292,0.838
		c-1.275,0-2.417-0.309-3.422-0.926c-1.005-0.615-1.768-1.457-2.284-2.523C135.822,52.499,135.563,51.37,135.563,50.181z
		 M137.412,50.208c0,1.634,0.439,2.921,1.318,3.86c0.877,0.94,1.979,1.412,3.306,1.412c1.351,0,2.462-0.477,3.334-1.426
		s1.31-2.297,1.31-4.042c0-1.104-0.188-2.066-0.561-2.89c-0.373-0.824-0.919-1.461-1.637-1.914c-0.719-0.453-1.524-0.68-2.418-0.68
		c-1.271,0-2.363,0.437-3.278,1.309C137.87,46.711,137.412,48.168,137.412,50.208z"/>
	<path fill="#828080" d="M150.868,56.783V43.227h6.011c1.208,0,2.127,0.121,2.756,0.365c0.629,0.243,1.131,0.674,1.508,1.29
		c0.375,0.616,0.563,1.298,0.563,2.044c0,0.961-0.312,1.772-0.935,2.432c-0.623,0.66-1.584,1.079-2.886,1.258
		c0.476,0.229,0.837,0.452,1.082,0.675c0.524,0.48,1.021,1.082,1.489,1.805l2.357,3.688h-2.256l-1.795-2.82
		c-0.523-0.813-0.955-1.437-1.295-1.868c-0.339-0.431-0.643-0.732-0.91-0.906c-0.269-0.172-0.541-0.293-0.818-0.359
		c-0.203-0.043-0.536-0.064-0.999-0.064h-2.08v6.021h-1.793V56.783z M152.662,49.21h3.855c0.819,0,1.461-0.085,1.924-0.255
		c0.463-0.169,0.813-0.44,1.055-0.813c0.24-0.373,0.359-0.778,0.359-1.216c0-0.642-0.231-1.169-0.697-1.582
		c-0.467-0.413-1.2-0.619-2.205-0.619h-4.291V49.21z"/>
</g>
</svg>
