<?xml version="1.0" encoding="utf-8"?>
<!-- Generator: Adobe Illustrator 16.0.0, SVG Export Plug-In . SVG Version: 6.00 Build 0)  -->
<!DOCTYPE svg PUBLIC "-//W3C//DTD SVG 1.1//EN" "http://www.w3.org/Graphics/SVG/1.1/DTD/svg11.dtd">
<svg version="1.1" id="Layer_1" xmlns="http://www.w3.org/2000/svg" xmlns:xlink="http://www.w3.org/1999/xlink" x="0px" y="0px"
	 width="150px" height="60px" viewBox="0 0 150 60" enable-background="new 0 0 150 60" xml:space="preserve">
<g>
	<g>
		<path fill="#828080" d="M23.817,35.525V24.48h3.805c0.859,0,1.515,0.053,1.967,0.158c0.634,0.146,1.173,0.408,1.62,0.791
			c0.583,0.491,1.019,1.12,1.307,1.887c0.289,0.767,0.434,1.643,0.434,2.627c0,0.839-0.098,1.582-0.294,2.229
			c-0.195,0.648-0.447,1.186-0.754,1.609c-0.306,0.425-0.642,0.76-1.005,1.002c-0.364,0.244-0.804,0.429-1.318,0.555
			c-0.516,0.125-1.106,0.188-1.774,0.188H23.817z M25.279,34.223h2.358c0.729,0,1.3-0.065,1.715-0.203
			c0.414-0.136,0.744-0.326,0.99-0.57c0.347-0.348,0.617-0.813,0.811-1.399c0.192-0.585,0.29-1.295,0.29-2.128
			c0-1.154-0.19-2.043-0.569-2.664c-0.379-0.619-0.84-1.035-1.383-1.247c-0.392-0.149-1.022-0.226-1.891-0.226h-2.321V34.223
			L25.279,34.223z"/>
		<path fill="#828080" d="M34.984,35.525V24.48h4.897c0.984,0,1.733,0.099,2.246,0.297c0.513,0.197,0.922,0.55,1.228,1.052
			c0.307,0.502,0.46,1.058,0.46,1.665c0,0.783-0.254,1.443-0.762,1.982c-0.507,0.537-1.29,0.879-2.35,1.023
			c0.387,0.188,0.68,0.369,0.881,0.55c0.427,0.392,0.832,0.882,1.214,1.472l1.921,3.006h-1.838l-1.462-2.299
			c-0.427-0.662-0.779-1.17-1.056-1.521c-0.277-0.352-0.523-0.598-0.742-0.738c-0.218-0.141-0.44-0.238-0.666-0.293
			c-0.166-0.035-0.438-0.053-0.814-0.053h-1.695v4.904h-1.462V35.525z M36.446,29.355h3.142c0.668,0,1.19-0.069,1.567-0.207
			c0.377-0.139,0.663-0.359,0.859-0.664c0.195-0.303,0.293-0.633,0.293-0.99c0-0.521-0.188-0.952-0.568-1.289
			c-0.379-0.336-0.979-0.504-1.798-0.504h-3.496L36.446,29.355L36.446,29.355z"/>
		<path fill="#828080" d="M44.894,35.525l4.242-11.047h1.575l4.521,11.047h-1.666l-1.287-3.346h-4.62l-1.213,3.346H44.894z
			 M48.081,30.99h3.745l-1.153-3.059c-0.353-0.931-0.612-1.693-0.784-2.293c-0.141,0.709-0.339,1.411-0.595,2.111L48.081,30.99z"/>
		<path fill="#828080" d="M61.568,31.193v-1.297l4.68-0.006v4.099c-0.719,0.571-1.459,1.003-2.223,1.292s-1.549,0.433-2.352,0.433
			c-1.086,0-2.07-0.229-2.958-0.694c-0.887-0.465-1.557-1.139-2.008-2.018c-0.451-0.88-0.679-1.861-0.679-2.945
			c0-1.076,0.225-2.078,0.675-3.011c0.45-0.932,1.097-1.624,1.94-2.075c0.842-0.453,1.815-0.679,2.916-0.679
			c0.797,0,1.521,0.129,2.166,0.39c0.646,0.258,1.15,0.618,1.519,1.08c0.366,0.461,0.646,1.064,0.837,1.809l-1.318,0.361
			c-0.166-0.563-0.373-1.005-0.617-1.326c-0.248-0.321-0.6-0.578-1.056-0.772c-0.457-0.192-0.965-0.289-1.522-0.289
			c-0.668,0-1.245,0.103-1.731,0.306c-0.487,0.203-0.881,0.471-1.18,0.803c-0.3,0.332-0.531,0.695-0.696,1.093
			c-0.281,0.685-0.423,1.424-0.423,2.224c0,0.984,0.17,1.809,0.51,2.473c0.339,0.662,0.832,1.154,1.479,1.478
			c0.648,0.321,1.337,0.481,2.064,0.481c0.635,0,1.251-0.121,1.854-0.365c0.604-0.244,1.062-0.503,1.373-0.78v-2.057h-3.25V31.193
			L61.568,31.193z"/>
		<path fill="#828080" d="M80.573,31.652l1.462,0.369c-0.307,1.201-0.858,2.117-1.654,2.746c-0.797,0.631-1.77,0.945-2.919,0.945
			c-1.192,0-2.159-0.242-2.905-0.727c-0.746-0.486-1.313-1.188-1.701-2.106c-0.392-0.92-0.586-1.905-0.586-2.962
			c0-1.148,0.221-2.154,0.66-3.01c0.439-0.856,1.065-1.508,1.877-1.952c0.811-0.444,1.703-0.666,2.678-0.666
			c1.104,0,2.035,0.28,2.789,0.844s1.277,1.354,1.574,2.373l-1.439,0.341c-0.256-0.805-0.627-1.391-1.113-1.757
			c-0.488-0.366-1.102-0.551-1.84-0.551c-0.85,0-1.559,0.204-2.128,0.61c-0.57,0.406-0.972,0.953-1.203,1.64
			c-0.229,0.687-0.347,1.394-0.347,2.121c0,0.938,0.138,1.759,0.41,2.462c0.274,0.7,0.699,1.225,1.277,1.57
			c0.577,0.347,1.203,0.521,1.876,0.521c0.819,0,1.513-0.237,2.08-0.708C79.986,33.284,80.372,32.583,80.573,31.652z"/>
		<path fill="#828080" d="M83.391,30.146c0-1.834,0.493-3.27,1.479-4.307c0.984-1.037,2.256-1.557,3.813-1.557
			c1.021,0,1.939,0.244,2.758,0.73c0.819,0.486,1.443,1.166,1.873,2.038c0.431,0.871,0.646,1.859,0.646,2.966
			c0,1.119-0.228,2.121-0.679,3.006s-1.092,1.554-1.922,2.009c-0.828,0.454-1.723,0.683-2.682,0.683
			c-1.039,0-1.97-0.252-2.789-0.755c-0.818-0.501-1.438-1.187-1.859-2.056C83.602,32.035,83.391,31.115,83.391,30.146z
			 M84.896,30.169c0,1.331,0.357,2.38,1.074,3.146c0.715,0.767,1.612,1.15,2.692,1.15c1.103,0,2.007-0.389,2.717-1.162
			c0.711-0.773,1.067-1.871,1.067-3.293c0-0.898-0.152-1.684-0.456-2.354c-0.306-0.672-0.75-1.19-1.335-1.561
			c-0.586-0.369-1.242-0.555-1.971-0.555c-1.035,0-1.924,0.355-2.672,1.066C85.27,27.318,84.896,28.507,84.896,30.169z"/>
		<path fill="#828080" d="M95.777,35.525V24.48h1.464v9.742h5.44v1.305L95.777,35.525L95.777,35.525z"/>
		<path fill="#828080" d="M103.979,30.146c0-1.834,0.492-3.27,1.478-4.307c0.983-1.037,2.256-1.557,3.813-1.557
			c1.02,0,1.938,0.244,2.758,0.73c0.818,0.486,1.443,1.166,1.873,2.038c0.43,0.871,0.645,1.859,0.645,2.966
			c0,1.119-0.227,2.121-0.678,3.006c-0.452,0.885-1.094,1.554-1.922,2.009c-0.83,0.454-1.723,0.683-2.684,0.683
			c-1.039,0-1.97-0.252-2.787-0.755c-0.82-0.501-1.44-1.187-1.861-2.056C104.188,32.035,103.979,31.115,103.979,30.146z
			 M105.484,30.169c0,1.331,0.356,2.38,1.074,3.146c0.715,0.767,1.611,1.15,2.692,1.15c1.101,0,2.006-0.389,2.717-1.162
			c0.71-0.773,1.066-1.871,1.066-3.293c0-0.898-0.152-1.684-0.456-2.354c-0.305-0.672-0.749-1.19-1.334-1.561
			c-0.586-0.369-1.242-0.555-1.971-0.555c-1.035,0-1.926,0.355-2.672,1.066S105.484,28.507,105.484,30.169z"/>
		<path fill="#828080" d="M116.448,35.525V24.48h4.897c0.983,0,1.732,0.099,2.245,0.297c0.513,0.197,0.923,0.55,1.229,1.052
			c0.306,0.502,0.459,1.058,0.459,1.665c0,0.783-0.254,1.443-0.762,1.982c-0.508,0.537-1.291,0.879-2.352,1.023
			c0.387,0.188,0.682,0.369,0.881,0.55c0.428,0.392,0.832,0.882,1.215,1.472l1.92,3.006h-1.838l-1.463-2.299
			c-0.427-0.662-0.777-1.17-1.055-1.521s-0.523-0.598-0.742-0.738s-0.439-0.238-0.667-0.293c-0.165-0.035-0.437-0.053-0.813-0.053
			h-1.694v4.904h-1.461V35.525L116.448,35.525z M117.91,29.355h3.142c0.669,0,1.19-0.069,1.567-0.207
			c0.377-0.139,0.663-0.359,0.859-0.664c0.195-0.303,0.293-0.633,0.293-0.99c0-0.521-0.188-0.952-0.568-1.289
			c-0.38-0.336-0.979-0.504-1.797-0.504h-3.496V29.355z"/>
	</g>
</g>
</svg>
