<?xml version="1.0" encoding="utf-8"?>
<!-- Generator: Adobe Illustrator 16.0.0, SVG Export Plug-In . SVG Version: 6.00 Build 0)  -->
<!DOCTYPE svg PUBLIC "-//W3C//DTD SVG 1.1//EN" "http://www.w3.org/Graphics/SVG/1.1/DTD/svg11.dtd">
<svg version="1.1" id="Layer_1" xmlns="http://www.w3.org/2000/svg" xmlns:xlink="http://www.w3.org/1999/xlink" x="0px" y="0px"
	 width="158.333px" height="36.5px" viewBox="17.666 35.833 158.333 36.5" enable-background="new 17.666 35.833 158.333 36.5"
	 xml:space="preserve">
<g>
	<path fill="#828080" d="M34.018,60.865V47.31h4.67c1.055,0,1.859,0.063,2.414,0.193c0.777,0.18,1.439,0.502,1.988,0.972
		c0.715,0.604,1.25,1.376,1.604,2.315c0.354,0.94,0.532,2.016,0.532,3.224c0,1.029-0.12,1.941-0.36,2.736
		c-0.24,0.796-0.55,1.454-0.926,1.975c-0.376,0.521-0.788,0.933-1.233,1.23c-0.447,0.299-0.986,0.525-1.618,0.68
		s-1.358,0.23-2.178,0.23H34.018z M35.812,59.266h2.896c0.894,0,1.595-0.082,2.104-0.25c0.509-0.166,0.914-0.399,1.216-0.701
		c0.426-0.426,0.758-0.998,0.994-1.717c0.237-0.718,0.356-1.589,0.356-2.611c0-1.418-0.233-2.508-0.698-3.271
		c-0.465-0.761-1.031-1.271-1.697-1.529c-0.48-0.186-1.255-0.277-2.32-0.277h-2.849L35.812,59.266L35.812,59.266z"/>
	<path fill="#828080" d="M47.723,60.865V47.31h6.011c1.208,0,2.127,0.121,2.757,0.364c0.629,0.243,1.131,0.675,1.507,1.29
		c0.376,0.616,0.563,1.299,0.563,2.044c0,0.962-0.311,1.772-0.934,2.433s-1.584,1.079-2.885,1.258
		c0.475,0.229,0.835,0.452,1.082,0.675c0.523,0.48,1.021,1.082,1.488,1.805l2.358,3.688h-2.256l-1.794-2.82
		c-0.524-0.813-0.956-1.437-1.295-1.868c-0.34-0.432-0.644-0.732-0.911-0.906c-0.269-0.172-0.541-0.293-0.818-0.359
		c-0.203-0.043-0.536-0.064-0.999-0.064h-2.081v6.021h-1.794V60.865z M49.517,53.292h3.856c0.819,0,1.461-0.085,1.924-0.255
		c0.462-0.169,0.813-0.439,1.054-0.813c0.24-0.373,0.36-0.778,0.36-1.217c0-0.642-0.232-1.169-0.698-1.582
		c-0.465-0.412-1.201-0.618-2.206-0.618h-4.291L49.517,53.292L49.517,53.292z"/>
	<path fill="#828080" d="M59.884,60.865l5.207-13.557h1.933l5.55,13.557h-2.045l-1.58-4.105h-5.67l-1.488,4.105H59.884z
		 M63.796,55.298h4.596l-1.415-3.754c-0.432-1.141-0.752-2.078-0.962-2.812c-0.173,0.869-0.416,1.731-0.729,2.59L63.796,55.298z"/>
	<path fill="#828080" d="M80.349,55.548v-1.591l5.743-0.009v5.03c-0.882,0.703-1.791,1.231-2.728,1.586
		c-0.938,0.354-1.899,0.531-2.886,0.531c-1.332,0-2.542-0.283-3.63-0.854s-1.91-1.396-2.464-2.475
		c-0.554-1.08-0.833-2.285-0.833-3.616c0-1.319,0.276-2.551,0.828-3.694c0.552-1.143,1.346-1.993,2.381-2.548
		c1.036-0.555,2.229-0.832,3.579-0.832c0.979,0,1.866,0.159,2.659,0.478c0.792,0.316,1.413,0.76,1.862,1.326
		c0.45,0.566,0.792,1.308,1.027,2.22l-1.619,0.443c-0.203-0.689-0.456-1.232-0.758-1.628c-0.302-0.395-0.734-0.71-1.294-0.948
		c-0.561-0.235-1.184-0.354-1.868-0.354c-0.82,0-1.529,0.125-2.127,0.374c-0.598,0.25-1.081,0.578-1.447,0.985
		c-0.366,0.406-0.651,0.854-0.854,1.341c-0.345,0.839-0.519,1.748-0.519,2.729c0,1.208,0.208,2.22,0.625,3.033
		c0.416,0.813,1.021,1.418,1.817,1.813c0.796,0.395,1.64,0.592,2.534,0.592c0.777,0,1.535-0.149,2.274-0.448
		c0.74-0.3,1.302-0.618,1.684-0.958V55.55h-3.988V55.548z"/>
	<path fill="#828080" d="M103.673,56.111l1.794,0.453c-0.376,1.475-1.053,2.598-2.03,3.371s-2.172,1.16-3.582,1.16
		c-1.463,0-2.65-0.298-3.565-0.892c-0.916-0.597-1.612-1.457-2.09-2.586c-0.479-1.128-0.718-2.339-0.718-3.634
		c0-1.412,0.271-2.645,0.811-3.694c0.539-1.052,1.307-1.85,2.302-2.396c0.996-0.546,2.093-0.818,3.288-0.818
		c1.355,0,2.497,0.346,3.422,1.036c0.926,0.69,1.568,1.661,1.934,2.912l-1.768,0.417c-0.313-0.986-0.771-1.705-1.367-2.155
		c-0.6-0.45-1.352-0.675-2.258-0.675c-1.041,0-1.912,0.25-2.612,0.749c-0.699,0.499-1.19,1.17-1.476,2.012
		c-0.283,0.841-0.425,1.709-0.425,2.604c0,1.152,0.168,2.158,0.504,3.021c0.336,0.859,0.857,1.502,1.567,1.928
		c0.709,0.426,1.477,0.639,2.303,0.639c1.005,0,1.855-0.291,2.553-0.869C102.954,58.113,103.426,57.253,103.673,56.111z"/>
	<path fill="#828080" d="M107.131,54.264c0-2.25,0.604-4.013,1.813-5.285c1.207-1.273,2.768-1.91,4.679-1.91
		c1.252,0,2.38,0.3,3.385,0.896c1.005,0.598,1.771,1.433,2.298,2.502s0.791,2.282,0.791,3.64c0,1.374-0.277,2.604-0.832,3.688
		c-0.555,1.086-1.341,1.907-2.357,2.465c-1.018,0.559-2.114,0.838-3.292,0.838c-1.276,0-2.417-0.309-3.423-0.926
		c-1.004-0.615-1.767-1.457-2.283-2.523C107.39,56.581,107.131,55.452,107.131,54.264z M108.979,54.29
		c0,1.634,0.438,2.921,1.317,3.86c0.878,0.94,1.979,1.412,3.306,1.412c1.352,0,2.463-0.477,3.334-1.426
		c0.873-0.949,1.31-2.297,1.31-4.041c0-1.104-0.187-2.066-0.56-2.891s-0.92-1.461-1.638-1.914s-1.524-0.68-2.418-0.68
		c-1.271,0-2.362,0.437-3.278,1.309C109.437,50.793,108.979,52.25,108.979,54.29z"/>
	<path fill="#828080" d="M122.334,60.865V47.31h1.795v11.956h6.677v1.601L122.334,60.865L122.334,60.865z"/>
	<path fill="#828080" d="M132.396,54.264c0-2.25,0.604-4.013,1.813-5.285c1.208-1.273,2.769-1.91,4.679-1.91
		c1.252,0,2.381,0.3,3.385,0.896c1.006,0.598,1.771,1.433,2.299,2.502s0.791,2.282,0.791,3.64c0,1.374-0.277,2.604-0.832,3.688
		c-0.555,1.086-1.342,1.907-2.358,2.465c-1.019,0.559-2.114,0.838-3.292,0.838c-1.275,0-2.417-0.309-3.422-0.926
		c-1.005-0.615-1.768-1.457-2.284-2.523C132.655,56.581,132.396,55.452,132.396,54.264z M134.245,54.29
		c0,1.634,0.439,2.921,1.318,3.86c0.877,0.94,1.979,1.412,3.306,1.412c1.351,0,2.462-0.477,3.334-1.426s1.31-2.297,1.31-4.041
		c0-1.104-0.188-2.066-0.561-2.891s-0.919-1.461-1.637-1.914c-0.719-0.453-1.524-0.68-2.418-0.68c-1.271,0-2.363,0.437-3.278,1.309
		C134.703,50.793,134.245,52.25,134.245,54.29z"/>
	<path fill="#828080" d="M147.701,60.865V47.31h6.011c1.208,0,2.127,0.121,2.756,0.364s1.131,0.675,1.508,1.29
		c0.375,0.616,0.563,1.299,0.563,2.044c0,0.962-0.312,1.772-0.935,2.433s-1.584,1.079-2.886,1.258
		c0.476,0.229,0.837,0.452,1.082,0.675c0.524,0.48,1.021,1.082,1.489,1.805l2.357,3.688h-2.256l-1.795-2.82
		c-0.523-0.813-0.955-1.437-1.295-1.868c-0.339-0.431-0.643-0.732-0.91-0.906c-0.269-0.172-0.541-0.293-0.818-0.359
		c-0.203-0.043-0.536-0.064-0.999-0.064h-2.08v6.021h-1.793V60.865z M149.495,53.292h3.855c0.819,0,1.461-0.085,1.924-0.255
		c0.463-0.169,0.813-0.439,1.055-0.813c0.24-0.373,0.359-0.778,0.359-1.217c0-0.642-0.231-1.169-0.697-1.582
		c-0.467-0.412-1.2-0.618-2.205-0.618h-4.291V53.292z"/>
</g>
</svg>
