<?xml version="1.0" encoding="utf-8"?>
<!-- Generator: Adobe Illustrator 16.0.0, SVG Export Plug-In . SVG Version: 6.00 Build 0)  -->
<!DOCTYPE svg PUBLIC "-//W3C//DTD SVG 1.1//EN" "http://www.w3.org/Graphics/SVG/1.1/DTD/svg11.dtd">
<svg version="1.1" id="Layer_1" xmlns="http://www.w3.org/2000/svg" xmlns:xlink="http://www.w3.org/1999/xlink" x="0px" y="0px"
	 width="30px" height="30px" viewBox="0 0 30 30" enable-background="new 0 0 30 30" xml:space="preserve">
<g>
	<path fill-rule="evenodd" clip-rule="evenodd" fill="#F177C4" d="M11.569,1.353c2.16-0.545,4.479-0.584,6.785-0.017l-1.676,6.328
		c-1.154-0.265-2.312-0.247-3.397,0.009L11.569,1.353L11.569,1.353z"/>
	<path fill-rule="evenodd" clip-rule="evenodd" fill="#FE0000" d="M5.206,4.897c1.648-1.595,3.666-2.767,5.868-3.41l1.711,6.319
		C11.69,8.145,10.684,8.73,9.847,9.514L5.206,4.897L5.206,4.897z"/>
	<path fill-rule="evenodd" clip-rule="evenodd" fill="#F8931F" d="M1.468,11.147C2.118,8.862,3.3,6.867,4.843,5.261l4.642,4.617
		c-0.76,0.816-1.348,1.813-1.69,2.947L1.468,11.147L1.468,11.147z"/>
	<path fill-rule="evenodd" clip-rule="evenodd" fill="#FFF100" d="M1.353,18.431c-0.545-2.158-0.584-4.479-0.017-6.785l6.328,1.677
		c-0.264,1.153-0.247,2.311,0.009,3.397L1.353,18.431L1.353,18.431z"/>
	<path fill-rule="evenodd" clip-rule="evenodd" fill="#B6DF23" d="M4.898,24.796c-1.595-1.648-2.768-3.668-3.411-5.869l6.319-1.711
		c0.338,1.094,0.923,2.102,1.708,2.938L4.898,24.796L4.898,24.796z"/>
	<path fill-rule="evenodd" clip-rule="evenodd" fill="#009345" d="M11.148,28.532c-2.286-0.65-4.281-1.83-5.887-3.375l4.617-4.643
		c0.816,0.76,1.813,1.35,2.947,1.689L11.148,28.532L11.148,28.532z"/>
	<path fill-rule="evenodd" clip-rule="evenodd" fill="#00BE9C" d="M18.431,28.647c-2.16,0.545-4.478,0.584-6.785,0.018l1.676-6.328
		c1.154,0.266,2.311,0.246,3.396-0.008L18.431,28.647L18.431,28.647z"/>
	<path fill-rule="evenodd" clip-rule="evenodd" fill="#26A9E1" d="M24.794,25.103c-1.648,1.596-3.667,2.768-5.868,3.41l-1.712-6.318
		c1.095-0.34,2.102-0.924,2.938-1.707L24.794,25.103L24.794,25.103z"/>
	<path fill-rule="evenodd" clip-rule="evenodd" fill="#1A75BB" d="M28.531,18.853c-0.65,2.285-1.832,4.281-3.375,5.887l-4.642-4.617
		c0.759-0.814,1.348-1.813,1.689-2.945L28.531,18.853L28.531,18.853z"/>
	<path fill-rule="evenodd" clip-rule="evenodd" fill="#2A3890" d="M28.647,11.569c0.545,2.16,0.584,4.479,0.017,6.786l-6.328-1.678
		c0.265-1.152,0.248-2.311-0.009-3.396L28.647,11.569L28.647,11.569z"/>
	<path fill-rule="evenodd" clip-rule="evenodd" fill="#90278E" d="M25.102,5.205c1.595,1.648,2.768,3.667,3.41,5.868l-6.319,1.712
		c-0.338-1.095-0.923-2.101-1.707-2.938L25.102,5.205L25.102,5.205z"/>
	<path fill-rule="evenodd" clip-rule="evenodd" fill="#EA00AD" d="M18.852,1.468c2.285,0.65,4.28,1.832,5.887,3.375l-4.616,4.643
		c-0.817-0.76-1.813-1.349-2.947-1.69L18.852,1.468L18.852,1.468z"/>
</g>
</svg>
