<?xml version="1.0" encoding="utf-8"?>
<!-- Generator: Adobe Illustrator 16.0.0, SVG Export Plug-In . SVG Version: 6.00 Build 0)  -->
<!DOCTYPE svg PUBLIC "-//W3C//DTD SVG 1.1//EN" "http://www.w3.org/Graphics/SVG/1.1/DTD/svg11.dtd">
<svg version="1.1" id="bold" xmlns="http://www.w3.org/2000/svg" xmlns:xlink="http://www.w3.org/1999/xlink" x="0px" y="0px"
	 width="512px" height="512px" viewBox="0 0 512 512" enable-background="new 0 0 512 512" xml:space="preserve">
<path fill="#A0A0A0" d="M51.84,334.293L343.851,42.069c3.008-3.029,7.083-4.736,11.328-4.736h0.021
	c4.245,0,8.319,1.685,11.307,4.693l103.467,103.466c3.008,3.008,4.693,7.083,4.693,11.307c0,4.246-1.686,8.32-4.693,11.328
	L177.707,460.182L51.84,334.293z"/>
<path fill="#A0A0A0" d="M481.451,126.784l10.517-10.518c12.907-12.928,20.032-29.973,20.032-48c0-18.432-7.168-35.584-19.989-48.17
	c-25.643-25.899-70.72-25.877-96.299-0.043l-10.518,10.518L481.451,126.784z"/>
<path fill="#A0A0A0" d="M43.179,355.797L0.726,491.222c-1.771,5.675-0.256,11.882,3.968,16.085C7.723,510.357,11.819,512,16,512
	c1.6,0,3.2-0.234,4.8-0.726l135.403-42.453L43.179,355.797z"/>
<path fill="#A0A0A0" d="M148.693,187.478c4.096,0,8.192-1.558,11.307-4.693L263.296,79.488c5.525-5.504,12.907-7.68,20.139-7.146
	l25.259-25.28c-21.846-11.691-49.621-8.598-68.032,9.792L137.365,160.149c-6.25,6.25-6.25,16.384,0,22.635
	C140.501,185.898,144.576,187.478,148.693,187.478L148.693,187.478z"/>
</svg>
