<?xml version="1.0" encoding="utf-8"?>
<!-- Generator: Adobe Illustrator 16.0.0, SVG Export Plug-In . SVG Version: 6.00 Build 0)  -->
<!DOCTYPE svg PUBLIC "-//W3C//DTD SVG 1.1//EN" "http://www.w3.org/Graphics/SVG/1.1/DTD/svg11.dtd">
<svg version="1.1" id="Layer_1" xmlns="http://www.w3.org/2000/svg" xmlns:xlink="http://www.w3.org/1999/xlink" x="0px" y="0px"
	 width="30px" height="30px" viewBox="0 0 30 30" enable-background="new 0 0 30 30" xml:space="preserve">
<g>
	<path fill="#FF4040" d="M9.68,0.927h19.394v19.396H9.68V0.927L9.68,0.927z M12.991,4.239h12.772V17.01H12.991V4.239L12.991,4.239z"
		/>
	<path fill="#0077E8" d="M0.927,9.68h19.396v19.394H0.927V9.68L0.927,9.68z M4.238,12.991H17.01v12.771H4.238V12.991L4.238,12.991z"
		/>
</g>
<g>
	<g id="lock">
		<path fill="#404040" d="M28.102,16.715h-0.948v-1.898c0-2.657-2.087-4.744-4.743-4.744c-2.658,0-4.744,2.087-4.744,4.744v1.898
			h-0.951c-1.043,0-1.896,0.854-1.896,1.897v9.488c0,1.045,0.854,1.899,1.896,1.899h11.387C29.146,30,30,29.146,30,28.101v-9.488
			C30,17.569,29.146,16.715,28.102,16.715z M22.41,25.255c-1.044,0-1.898-0.854-1.898-1.899c0-1.043,0.854-1.896,1.898-1.896
			c1.043,0,1.896,0.854,1.896,1.896C24.307,24.401,23.453,25.255,22.41,25.255z M25.35,16.715h-5.881v-1.898
			c0-1.613,1.327-2.941,2.941-2.941c1.612,0,2.939,1.328,2.939,2.941V16.715z"/>
	</g>
</g>
</svg>
