<?xml version="1.0" encoding="utf-8"?>
<!-- Generator: Adobe Illustrator 16.0.0, SVG Export Plug-In . SVG Version: 6.00 Build 0)  -->
<!DOCTYPE svg PUBLIC "-//W3C//DTD SVG 1.1//EN" "http://www.w3.org/Graphics/SVG/1.1/DTD/svg11.dtd">
<svg version="1.1" id="Capa_1" xmlns="http://www.w3.org/2000/svg" xmlns:xlink="http://www.w3.org/1999/xlink" x="0px" y="0px"
	 width="200px" height="100px" viewBox="0 0 200 100" enable-background="new 0 0 200 100" xml:space="preserve">
<g>
	<g>
		<path fill="#828080" d="M110,0H70c-5.5,0-9.95,4.5-9.95,10L60,90c0,5.5,4.45,10,9.95,10H130c5.5,0,10-4.5,10-10V30L110,0z M100,80
			c-10.25,0-19.025-6.176-22.9-15h8.55c3.175,4.525,8.4,7.5,14.325,7.5c9.676,0,17.5-7.825,17.5-17.5c0-9.675-7.824-17.5-17.5-17.5
			C93.2,37.5,87.4,41.375,84.5,47.025l8,7.975h-20V35l6.5,6.5C83.45,34.6,91.175,30,100,30c13.8,0,25,11.2,25,25S113.8,80,100,80z"
			/>
	</g>
</g>
</svg>
