<?xml version="1.0" encoding="utf-8"?>
<!-- Generator: Adobe Illustrator 16.0.0, SVG Export Plug-In . SVG Version: 6.00 Build 0)  -->
<!DOCTYPE svg PUBLIC "-//W3C//DTD SVG 1.1//EN" "http://www.w3.org/Graphics/SVG/1.1/DTD/svg11.dtd">
<svg version="1.1" id="Capa_1" xmlns="http://www.w3.org/2000/svg" xmlns:xlink="http://www.w3.org/1999/xlink" x="0px" y="0px"
	 width="200px" height="100px" viewBox="0 0 200 100" enable-background="new 0 0 200 100" xml:space="preserve">
<g>
	<g>
		<path fill="#828080" d="M127.777,0H61.111C54.972,0,50,4.972,50,11.111v77.777C50,95.027,54.972,100,61.111,100h77.777
			C145.027,100,150,95.027,150,88.889V22.222L127.777,0z M100,88.889c-9.194,0-16.667-7.473-16.667-16.666
			c0-9.195,7.472-16.667,16.667-16.667s16.666,7.472,16.666,16.667C116.666,81.416,109.194,88.889,100,88.889z M116.666,33.333
			H61.111V11.111h55.555V33.333z"/>
	</g>
</g>
</svg>
