<?xml version="1.0" encoding="utf-8"?>
<!-- Generator: Adobe Illustrator 16.0.0, SVG Export Plug-In . SVG Version: 6.00 Build 0)  -->
<!DOCTYPE svg PUBLIC "-//W3C//DTD SVG 1.1//EN" "http://www.w3.org/Graphics/SVG/1.1/DTD/svg11.dtd">
<svg version="1.1" id="Layer_1" xmlns="http://www.w3.org/2000/svg" xmlns:xlink="http://www.w3.org/1999/xlink" x="0px" y="0px"
	 width="50px" height="50px" viewBox="0 0 50 50" enable-background="new 0 0 50 50" xml:space="preserve">
<g>
	<rect x="37.177" y="5.921" fill="#DEDBDB" width="1.382" height="38.157"/>
	<path fill="#DEDBDB" d="M29.403,22.29l0.238-1.748h-3.193l1.049-7.454H25.64l-1.048,7.454h-4.55l1.048-7.454h-1.839l-1.048,7.454
		H14.82l-0.236,1.748h3.377l-0.705,4.947h-3.383l-0.237,1.747h3.379L15.9,36.912h1.838l1.117-7.928h4.55l-1.116,7.928h1.856
		l1.116-7.928h3.196l0.235-1.747h-3.191l0.705-4.947H29.403z M24.351,22.29l-0.704,4.947h-4.535l0.689-4.947H24.351z"/>
</g>
</svg>
